<svg xmlns="http://www.w3.org/2000/svg" width="1500" height="470" viewBox="0 0 1500 470">
  <g transform="translate(18 38) scale(.38)">
    <circle cx="278" cy="330" r="38" fill="#5E9ED6"/>
    <g fill="none" stroke-width="76" stroke-linecap="butt" stroke-linejoin="round">
      <path pathLength="100" d="M278 330C184 472 231 675 391 760C552 846 751 770 819 606C874 471 823 325 705 247" stroke="#5E9ED6" stroke-dasharray="22 78"/>
      <path pathLength="100" d="M278 330C184 472 231 675 391 760C552 846 751 770 819 606C874 471 823 325 705 247" stroke="#57A47A" stroke-dasharray="26 74" stroke-dashoffset="-22"/>
      <path pathLength="100" d="M278 330C184 472 231 675 391 760C552 846 751 770 819 606C874 471 823 325 705 247" stroke="#F5AE54" stroke-dasharray="20 80" stroke-dashoffset="-48"/>
      <path pathLength="100" d="M278 330C184 472 231 675 391 760C552 846 751 770 819 606C874 471 823 325 705 247" stroke="#745170" stroke-dasharray="17 83" stroke-dashoffset="-68"/>
      <path pathLength="100" d="M278 330C184 472 231 675 391 760C552 846 751 770 819 606C874 471 823 325 705 247" stroke="#25354A" stroke-dasharray="15 85" stroke-dashoffset="-85"/>
    </g>
    <circle cx="746" cy="219" r="30" fill="#F5AE54"/><path d="M792 185L824 150" fill="none" stroke="#57A47A" stroke-width="30" stroke-linecap="round"/>
  </g>
  <g transform="translate(420 18)" fill="none" stroke="#273238" stroke-linecap="round" stroke-linejoin="round">
    <path d="M0 42V332M150 42V332M0 186H150" stroke-width="29"/><circle cx="75" cy="186" r="11" fill="#5E9ED6" stroke="none"/>
    <path d="M438 160A128 128 0 1 0 438 212" stroke-width="32"/><path d="M438 186H461" stroke="#57A47A" stroke-width="12"/>
    <path d="M461 332V217C461 170 491 144 536 144C580 144 607 171 607 217V245" stroke-width="29"/><path d="M607 245H660" stroke="#F5AE54" stroke-width="12"/>
    <path d="M660 245H790C790 182 764 144 718 144C669 144 643 187 643 245C643 304 675 340 727 340C756 340 781 328 800 305" stroke-width="29"/><circle cx="718" cy="245" r="10" fill="#745170" stroke="none"/>
    <path d="M841 152L911 340L988 152M911 340C898 390 876 413 829 413" stroke-width="29"/><path d="M911 324V357" stroke="#5E9ED6" stroke-width="12"/>
  </g>
</svg>
